<svg width="157" height="37" viewBox="0 0 157 37" fill="none" xmlns="http://www.w3.org/2000/svg">
<g clip-path="url(#clip0_15_282)">
<path d="M55.0814 32.7318C55.0428 32.4279 54.8753 32.1504 54.6177 31.9654L50.998 29.3357C50.4698 28.9525 49.7742 29.0979 49.4135 29.6264L49.259 29.8643C49.1688 29.4547 48.9884 29.0318 48.7566 28.6486C47.842 27.1157 46.0643 26.3097 44.2996 26.6004L44.4541 27.5914C45.8196 27.3536 47.2237 27.9879 47.9322 29.1772C48.164 29.5472 48.3057 29.9436 48.383 30.525C48.4217 30.7497 48.4216 30.9743 48.4216 31.1725L47.5457 32.5072C47.1979 33.0489 47.3396 33.7889 47.842 34.1457L51.4617 36.7754C51.7193 36.9604 52.0285 37.0397 52.3247 36.9868L54.9139 36.4847C55.3519 36.4054 55.6611 35.9429 55.5838 35.4672L55.0814 32.7318ZM53.5227 35.2425C53.2393 35.3086 52.9431 35.0839 52.8787 34.7668C52.8271 34.4497 53.0204 34.1193 53.3295 34.0664C53.6258 34.0004 53.9349 34.225 53.9993 34.5422C54.0509 34.8593 53.8319 35.1764 53.5227 35.2425Z" fill="#E7E3E0"/>
<path d="M0 11.9061C0 6.05215 4.35396 1.59894 10.0734 1.59894C15.7927 1.59894 20.1853 6.05215 20.1853 11.9061C20.1853 17.76 15.8056 22.2132 10.0734 22.2132C4.34107 22.2132 0 17.7864 0 11.9061ZM15.8314 11.9061C15.8314 8.39108 13.3324 5.66894 10.0734 5.66894C6.81433 5.66894 4.31531 8.39108 4.31531 11.9061C4.31531 15.4211 6.85297 18.1432 10.0734 18.1432C13.2937 18.1432 15.8314 15.4211 15.8314 11.9061Z" fill="#E7E3E0"/>
<path d="M24.8097 21.83C23.7534 21.83 22.8904 20.9446 22.8904 19.861V13.4389C22.8904 9.68604 24.9643 6.81854 29.1894 6.81854C29.4986 6.81854 29.8206 6.84497 30.1298 6.8714C31.0959 6.99033 31.843 7.82283 31.843 8.82711C31.843 9.96354 30.9027 10.8357 29.7949 10.7828C29.7176 10.7828 29.6403 10.7828 29.563 10.7828C27.9528 10.7828 26.9738 11.84 26.9738 13.5843V19.861C26.9738 20.9446 26.1108 21.83 25.0545 21.83H24.7968H24.8097Z" fill="#E7E3E0"/>
<path d="M35.0764 23.7196L35.2954 23.6007C36.0296 23.191 36.9056 23.3893 37.511 23.9839C38.1937 24.6578 39.147 25.1071 40.4351 25.1071C42.8568 25.1071 44.4928 23.3628 44.4928 20.4953V20.231C43.7199 21.2353 42.3287 22.0018 40.3192 22.0018C36.313 22.0018 33.1184 18.8171 33.1184 14.4696C33.1184 10.1221 36.4547 6.79211 40.8344 6.79211C45.2142 6.79211 48.5762 10.0693 48.5762 14.4696V20.3764C48.5762 25.5696 45.124 28.9393 40.4866 28.9393C38.0907 28.9393 36.094 28.1596 34.6771 26.7193C33.8011 25.8339 34.0072 24.3275 35.0893 23.7196H35.0764ZM44.4284 14.1393C44.3253 12.461 43.0114 11.0471 41.4012 10.796C39.1083 10.4525 37.1632 12.0778 37.1632 14.3771C37.1632 16.4782 38.7734 18.0375 40.7958 18.0375C42.9212 18.0375 44.583 16.346 44.4413 14.126L44.4284 14.1393Z" fill="#E7E3E0"/>
<path d="M51.8482 17.4296C49.813 12.0779 53.6259 6.7525 59.0104 6.7525C63.4674 6.7525 66.7522 10.0561 66.7522 14.4564V21.2221C66.7522 21.5393 66.4945 21.8036 66.1854 21.8036H62.8619V20.0857C61.9473 21.2618 60.5819 22.0282 58.8687 22.1604C55.79 22.3982 52.9689 20.35 51.8482 17.4032V17.4296ZM62.6687 14.4961C62.6687 12.4346 61.11 10.7168 59.0104 10.7168C56.9107 10.7168 55.3778 12.4346 55.3778 14.4961C55.3778 16.5575 56.8978 18.2754 59.0104 18.2754C61.1229 18.2754 62.6687 16.5575 62.6687 14.4961Z" fill="#E7E3E0"/>
<path d="M74.2748 15.0378V19.7289C74.2748 20.8918 73.3602 21.83 72.2266 21.83C71.0931 21.83 70.1785 20.8918 70.1785 19.7289V14.5357C70.1785 10.2807 72.626 6.79211 77.6111 6.79211C82.5963 6.79211 85.0953 10.2543 85.0953 14.5357V19.7289C85.0953 20.8918 84.1807 21.83 83.0471 21.83C81.9135 21.83 80.9989 20.8918 80.9989 19.7289V15.0378C80.9989 12.7914 79.9298 10.8753 77.5982 10.8753C75.2667 10.8753 74.2619 12.7914 74.2619 15.0378H74.2748Z" fill="#E7E3E0"/>
<path d="M92.953 9.30285V19.7289C92.953 20.8918 92.0384 21.83 90.9048 21.83C89.7713 21.83 88.8567 20.8918 88.8567 19.7289V9.30285C88.8567 8.14 89.7713 7.20178 90.9048 7.20178C92.0384 7.20178 92.953 8.14 92.953 9.30285Z" fill="#E7E3E0"/>
<path d="M100.308 21.83C97.9125 21.83 96.7403 20.4425 96.7145 18.8436C96.6888 17.4825 97.204 16.5047 98.4407 15.6854L105.178 11.0736C105.178 11.0736 105.294 10.9547 105.294 10.9018C105.294 10.7565 105.178 10.7565 105.088 10.7565H98.8915C97.9383 10.7565 97.1654 9.9636 97.1654 8.98574C97.1654 8.00788 97.9383 7.21503 98.8915 7.21503H105.951C108.334 7.21503 109.545 8.60253 109.545 10.2015C109.57 11.5625 109.055 12.5404 107.818 13.3597L101.081 17.9715C100.991 18.0375 100.965 18.0904 100.965 18.2093C100.965 18.3018 101.03 18.3018 101.133 18.3018H107.664C108.617 18.3018 109.39 19.0947 109.39 20.0725C109.39 21.0504 108.617 21.8432 107.664 21.8432H100.296L100.308 21.83Z" fill="#E7E3E0"/>
<path d="M112.121 17.4296C110.085 12.0778 113.898 6.76569 119.283 6.76569C123.74 6.76569 127.025 10.0693 127.025 14.4696V21.2353C127.025 21.5525 126.767 21.8168 126.458 21.8168H123.147V20.0989C122.233 21.275 120.867 22.0414 119.154 22.1735C116.075 22.4114 113.254 20.3632 112.134 17.4164L112.121 17.4296ZM122.941 14.496C122.941 12.4346 121.383 10.7168 119.283 10.7168C117.183 10.7168 115.65 12.4346 115.65 14.496C115.65 16.5575 117.183 18.2753 119.283 18.2753C121.383 18.2753 122.941 16.5575 122.941 14.496Z" fill="#E7E3E0"/>
<path d="M134.573 4.75715C135.23 2.60322 136.969 1.57251 138.773 1.57251C140.576 1.57251 142.341 2.60322 143.011 4.75715L147.326 19.1343C147.725 20.4689 146.746 21.83 145.381 21.83C144.466 21.83 143.668 21.2089 143.423 20.3104L143.14 19.2797C142.895 18.3811 142.083 17.76 141.182 17.76H136.39C135.488 17.7864 134.689 18.3943 134.445 19.2929L134.161 20.3236C133.916 21.2222 133.118 21.8432 132.203 21.8432C130.838 21.8432 129.859 20.4822 130.258 19.1475L134.573 4.77037V4.75715ZM135.965 13.9147H141.632L139.443 6.02572C139.327 5.61608 139.159 5.43108 138.811 5.43108C138.489 5.43108 138.296 5.60287 138.18 6.02572L135.965 13.9147Z" fill="#E7E3E0"/>
<path d="M152.891 2.22L153.986 0.687143C154.295 0.251071 154.784 0 155.313 0H155.351C156.717 0 157.49 1.59893 156.652 2.70893L155.506 4.24179C155.197 4.66464 154.707 4.9025 154.205 4.9025C152.852 4.9025 152.079 3.33 152.878 2.22H152.891ZM155.248 8.89322V20.1386C155.248 21.0636 154.514 21.83 153.599 21.83H152.801C151.899 21.83 151.152 21.0768 151.152 20.1386V8.89322C151.152 7.96821 151.886 7.20179 152.801 7.20179H153.599C154.501 7.20179 155.248 7.955 155.248 8.89322Z" fill="#E7E3E0"/>
<path d="M90.9178 1.83679H90.9049C89.7809 1.83679 88.8696 2.77156 88.8696 3.92465V3.93786C88.8696 5.09096 89.7809 6.02572 90.9049 6.02572H90.9178C92.0419 6.02572 92.9531 5.09096 92.9531 3.93786V3.92465C92.9531 2.77156 92.0419 1.83679 90.9178 1.83679Z" fill="#E7E3E0"/>
</g>
<defs>
<clipPath id="clip0_15_282">
<rect width="157" height="37" fill="white"/>
</clipPath>
</defs>
</svg>
